# xmcd CD database file
#
# Track frame offsets:
#	150
#	6776
#	68275
#	88405
#	173311
#	248033
#
# Disc length: 3531 seconds
#
# Revision: 1
# Processed by: cddbd v1.5.2PL0 Copyright (c) Steve Scherf et al.
# Submitted via: CDex 1.50Beta7
#
DISCID=390dc906
DTITLE=Clifford Brown  - At The Cotton Club 1956 - Disc 1
DYEAR=2007
DGENRE=Jazz
TTITLE0=Introduction [CD01)
TTITLE1=Take The "A" Train
TTITLE2=Darn That Dream
TTITLE3=Nice Work If You Can Get It
TTITLE4=Jordu
TTITLE5=Valse Hot (Incomplete)
EXTD=YEAR: 2007
EXTT0=
EXTT1=
EXTT2=
EXTT3=
EXTT4=
EXTT5=
PLAYORDER=
